# xmcd
#
# Track frame offsets: 
#        150
#        18350
#        41720
#        57632
#        79417
#        103200
#        114545
#        129477
#        140327
#
# Disc length: 2064 seconds
#
# Revision: 3
# Processed by: cddbd v1.5.2PL0 Copyright (c) Steve Scherf et al.
# Submitted via: ExactAudioCopy v0.99pb4
#
DISCID=80080e09
DTITLE=B.B. King - B.B. King in London
DYEAR=1971
DGENRE=Blues
TTITLE0=Caldonia
TTITLE1=Blue Shadows
TTITLE2=Alexis Boogie
TTITLE3=We Can't Agree
TTITLE4=Ghetto Woman
TTITLE5=Wet Hayshark
TTITLE6=Part-Time Love
TTITLE7=The Power Of The Blues
TTITLE8=Ain't Nobody Home
EXTD=
EXTT0=
EXTT1=
EXTT2=
EXTT3=
EXTT4=
EXTT5=
EXTT6=
EXTT7=
EXTT8=
PLAYORDER=
